<svg width="22" height="21" viewBox="0 0 22 21" fill="none" xmlns="http://www.w3.org/2000/svg">
<path d="M10.0616 3.93146L11.9384 2.05473C12.9338 1.05925 14.284 0.5 15.6918 0.5C17.0996 0.5 18.4498 1.05925 19.4453 2.05473C20.4407 3.05021 21 4.40037 21 5.80818C21 7.216 20.4407 8.56616 19.4453 9.56164L17.5685 11.4384M11.9384 17.0685L10.0616 18.9453C9.06616 19.9407 7.716 20.5 6.30818 20.5C4.90037 20.5 3.55021 19.9407 2.55473 18.9453C1.55925 17.9498 1 16.5996 1 15.1918C1 13.784 1.55925 12.4338 2.55473 11.4384L4.43146 9.56164M6.30818 15.1918L15.6918 5.80818" stroke="white" stroke-width="0.5" strokeLinecap="round" stroke-linejoin="round"/>
</svg>
