<svg width="190" height="221" viewBox="0 0 190 221" fill="none" xmlns="http://www.w3.org/2000/svg">
<g id="Gwiazdka do strony 1">
<g id="Group">
<path id="Vector" d="M90.3803 103.359C89.8237 91.8908 87.4861 80.5359 83.59 69.181C78.0241 52.8299 75.2412 41.5886 75.2412 35.4569C75.2412 26.8272 77.2449 20.2414 81.2523 15.6994C85.2597 11.1574 90.1577 9 96.0575 9C101.067 9 105.519 11.271 109.304 15.6994C113.089 20.2414 114.981 26.6001 114.981 34.8892C114.981 42.3834 112.866 52.83 108.525 66.2287C104.184 79.6275 101.512 92.0044 100.622 103.246C109.638 97.4547 117.653 90.3012 124.889 82.0121C136.02 68.8404 144.258 60.6648 149.601 57.599C154.944 54.4196 160.399 52.8299 165.965 52.8299C171.308 52.8299 175.872 54.6467 179.545 58.3939C183.219 62.141 185 66.5694 185 71.7926C185 77.9243 182.328 83.4882 176.874 88.2573C171.531 93.1399 158.061 97.9089 136.466 102.792C123.887 105.63 113.423 108.923 105.186 112.557C113.646 117.099 123.998 120.505 136.243 122.776C155.946 126.41 168.859 131.065 174.981 136.516C181.104 141.966 184.109 147.984 184.109 154.456C184.109 159.453 182.328 163.767 178.655 167.401C174.981 171.035 170.751 172.851 165.853 172.851C160.955 172.851 155.501 171.148 149.601 167.628C143.59 164.108 135.575 156.273 125.445 144.123C118.766 135.948 110.417 128.34 100.51 121.187C100.844 130.725 102.737 140.944 106.187 152.185C112.087 171.829 114.981 185.228 114.981 192.382C114.981 199.081 112.978 204.645 109.082 209.187C105.186 213.729 100.955 216 96.6141 216C90.603 216 85.1484 213.615 80.2505 208.733C76.7996 205.213 75.1299 199.649 75.1299 192.041C75.1299 184.093 77.0223 174.441 80.807 163.2C84.5918 151.958 86.9295 144.237 87.9313 140.036C88.9332 135.834 89.8237 129.476 90.603 121.187C81.0297 127.659 72.5696 134.926 65.4453 142.874C53.5343 156.5 44.5176 165.13 38.5065 168.877C34.2764 171.489 29.8237 172.851 25.2597 172.851C19.6939 172.851 15.0186 170.921 11.0111 167.06C7.11503 163.2 5.11132 158.998 5.11132 154.343C5.11132 150.142 6.78108 145.827 10.1206 141.285C13.4601 136.743 18.4694 132.882 25.1484 129.93C29.6011 127.886 39.6197 125.274 55.2041 121.981C65.3339 119.824 75.2412 116.645 84.8145 112.443C76.0204 107.901 65.4453 104.495 53.2004 101.997C33.1633 97.6818 20.6957 93.7076 16.0204 90.3011C8.67347 84.8508 5 78.1514 5 70.3165C5 65.7745 6.78108 61.6868 10.4545 57.9397C14.128 54.1925 18.3581 52.3758 23.256 52.3758C28.5993 52.3758 34.3878 54.079 40.3989 57.599C46.41 61.119 53.9796 68.1591 62.885 78.7191C72.013 89.3928 81.141 97.5683 90.3803 103.359Z" stroke="#C0C0C0" stroke-width="3" strokeMiterlimit="10"/>
</g>
</g>
</svg>
