<svg
  width="100"
  height="116"
  viewBox="0 0 100 116"
  fill="none"
  xmlns="http://www.w3.org/2000/svg"
>
  <g id="Gwiazdka do strony 1">
    <g id="Group">
      <path
        id="Vector"
        d="M47.5689 54.2516C47.2759 48.2319 46.0456 42.2719 43.995 36.3119C41.0656 27.7294 39.6009 21.829 39.6009 18.6105C39.6009 14.0809 40.6555 10.6241 42.7646 8.24006C44.8738 5.85604 47.4517 4.72363 50.5568 4.72363C53.1933 4.72363 55.5368 5.91564 57.5288 8.24006C59.5208 10.6241 60.5168 13.9617 60.5168 18.3125C60.5168 22.2462 59.4036 27.7294 57.1187 34.7622C54.8338 41.7951 53.4277 48.2915 52.959 54.192C57.7046 51.1524 61.9229 47.3975 65.7311 43.0467C71.5899 36.1331 75.9255 31.8418 78.7377 30.2326C81.5499 28.5638 84.4207 27.7294 87.3501 27.7294C90.1624 27.7294 92.5645 28.683 94.4979 30.6498C96.4313 32.6166 97.3687 34.941 97.3687 37.6827C97.3687 40.9011 95.9626 43.8215 93.0918 46.3247C90.2795 48.8875 83.1904 51.3908 71.8243 53.9536C65.2038 55.4436 59.6966 57.172 55.3611 59.0792C59.8138 61.4632 65.2624 63.2512 71.7071 64.4433C82.0772 66.3505 88.8734 68.7941 92.0958 71.6549C95.3181 74.5157 96.9 77.6746 96.9 81.0718C96.9 83.6942 95.9626 85.959 94.0292 87.8662C92.0958 89.7734 89.8694 90.727 87.2915 90.727C84.7137 90.727 81.8429 89.833 78.7377 87.9854C75.5739 86.1378 71.3556 82.0254 66.0241 75.6481C62.5088 71.3569 58.1147 67.3637 52.9004 63.6089C53.0761 68.6153 54.0721 73.9793 55.8884 79.8798C58.9935 90.1906 60.5168 97.2235 60.5168 100.978C60.5168 104.495 59.4622 107.415 57.4116 109.799C55.3611 112.183 53.1347 113.375 50.8498 113.375C47.686 113.375 44.8152 112.124 42.2373 109.561C40.4211 107.713 39.5423 104.793 39.5423 100.8C39.5423 96.6275 40.5383 91.5615 42.5303 85.661C44.5223 79.7606 45.7526 75.7077 46.2799 73.5025C46.8072 71.2973 47.2759 67.9597 47.686 63.6089C42.6475 67.0061 38.1948 70.8205 34.4451 74.9925C28.1762 82.1446 23.4306 86.6742 20.2668 88.641C18.0405 90.0118 15.697 90.727 13.2949 90.727C10.3655 90.727 7.90476 89.7138 5.79559 87.6874C3.74501 85.661 2.69042 83.4558 2.69042 81.0122C2.69042 78.807 3.56924 76.5421 5.32689 74.1581C7.08453 71.7741 9.72099 69.7477 13.2363 68.1981C15.5798 67.1253 20.8527 65.7545 29.055 64.0261C34.3865 62.8936 39.6009 61.2248 44.6395 59.0196C40.011 56.6356 34.4451 54.8476 28.0005 53.5364C17.4546 51.2716 10.8927 49.1855 8.43205 47.3975C4.56524 44.5367 2.63184 41.0203 2.63184 36.9079C2.63184 34.5238 3.56924 32.3782 5.50265 30.4114C7.43605 28.4446 9.6624 27.491 12.2403 27.491C15.0525 27.491 18.0991 28.385 21.2628 30.2326C24.4266 32.0802 28.4106 35.7755 33.0976 41.3183C37.9018 46.9207 42.706 51.212 47.5689 54.2516Z"
        stroke="#DBDBDB"
        stroke-width="3"
        strokeMiterlimit="10"
      />
    </g>
  </g>
</svg>
