<svg
  width="22"
  height="21"
  viewBox="0 0 22 21"
  fill="none"
  xmlns="http://www.w3.org/2000/svg"
>
  <path
    d="M14.3083 12.6867L12.1673 14.7989C11.0508 14.1257 10.0136 13.3289 9.07532 12.4237C8.17157 11.4837 7.37503 10.4462 6.70033 9.33037L8.81032 7.18915C8.93811 7.05937 9.02441 6.8945 9.05825 6.71552C9.09208 6.53654 9.07192 6.35154 9.00032 6.18405L6.80033 1.05554C6.71342 0.853321 6.55676 0.689058 6.35889 0.592683C6.16102 0.496309 5.93512 0.474237 5.72234 0.530489L1.68837 1.5976C1.48692 1.64983 1.30917 1.76889 1.18418 1.93531C1.0592 2.10173 0.9944 2.30564 1.00038 2.51369C1.25705 7.20593 3.20781 11.6455 6.49034 15.0079C9.85299 18.2918 14.2933 20.2432 18.9862 20.4995C19.1945 20.5065 19.3988 20.4422 19.5656 20.3173C19.7323 20.1923 19.8514 20.0142 19.9032 19.8124L20.9692 15.776C21.0258 15.5633 21.0039 15.3374 20.9077 15.1395C20.8115 14.9416 20.6474 14.7848 20.4452 14.6979L15.3163 12.4987C15.1486 12.426 14.9631 12.4051 14.7835 12.4386C14.6039 12.4721 14.4384 12.5585 14.3083 12.6867V12.6867Z"
    stroke="white"
    stroke-width="0.5"
    strokeMiterlimit="10"
    strokeLinecap="square"
  />
</svg>
