<svg width="70" height="70" viewBox="0 0 70 70" fill="none" xmlns="http://www.w3.org/2000/svg">
<g id="Icon UI">
<circle id="Base" cx="35" cy="35" r="34.5" transform="matrix(-1 0 0 1 70 0)" stroke="#626262"/>
<g id="Branding icon 1">
<path id="Vector" d="M41.7798 20.26H20.2598V50.16H41.7798V20.26Z" stroke="white" stroke-width="0.75" stroke-linejoin="round"/>
<path id="Vector_2" d="M33.8202 40.8201C34.3402 40.8201 34.7602 41.1001 35.2802 41.0801C35.4664 41.0886 35.6522 41.0582 35.8259 40.9909C35.9997 40.9236 36.1574 40.8207 36.2892 40.689C36.4209 40.5572 36.5237 40.3995 36.5911 40.2257C36.6584 40.052 36.6888 39.8662 36.6802 39.6801C36.6802 38.1401 36.9002 37.9401 38.1402 37.5601C38.3764 37.4899 38.5916 37.3626 38.767 37.1895C38.9423 37.0164 39.0722 36.8028 39.1454 36.5675C39.2185 36.3323 39.2326 36.0826 39.1864 35.8406C39.1401 35.5986 39.035 35.3718 38.8802 35.1801C38.5615 34.858 38.3827 34.4232 38.3827 33.9701C38.3827 33.5169 38.5615 33.0821 38.8802 32.7601C39.0348 32.567 39.1392 32.3387 39.1842 32.0956C39.2292 31.8524 39.2134 31.6019 39.1381 31.3664C39.0629 31.1308 38.9306 30.9175 38.753 30.7454C38.5754 30.5733 38.3581 30.4478 38.1202 30.3801C36.9602 30.0201 36.6602 29.8401 36.6802 28.2601C36.6688 28.0264 36.6028 27.7987 36.4876 27.5951C36.3725 27.3915 36.2113 27.2177 36.017 27.0875C35.8226 26.9573 35.6006 26.8743 35.3685 26.8453C35.1364 26.8162 34.9007 26.8418 34.6802 26.9201C34.2832 27.1311 33.8198 27.1803 33.3873 27.0573C32.9548 26.9342 32.5867 26.6485 32.3602 26.2601C32.2303 26.0447 32.0469 25.8666 31.8279 25.743C31.6089 25.6194 31.3617 25.5544 31.1102 25.5544C30.8588 25.5544 30.6115 25.6194 30.3925 25.743C30.1735 25.8666 29.9902 26.0447 29.8602 26.2601C29.6608 26.6253 29.3385 26.9081 28.9504 27.0582C28.5623 27.2083 28.1335 27.2161 27.7402 27.0801" stroke="white" stroke-width="0.75" strokeLinecap="round" stroke-linejoin="round"/>
<path id="Vector_3" d="M28.1399 27.08C27.6199 27.08 27.1999 26.82 26.6799 26.84C26.4945 26.8371 26.3104 26.8721 26.139 26.943C25.9676 27.0138 25.8125 27.119 25.6833 27.252C25.554 27.385 25.4533 27.543 25.3874 27.7163C25.3215 27.8897 25.2917 28.0747 25.2999 28.26C25.2999 29.82 25.0999 30.02 23.8799 30.44C23.6432 30.5164 23.429 30.6498 23.2559 30.8283C23.0828 31.0068 22.9561 31.2251 22.887 31.464C22.8179 31.7029 22.8085 31.9551 22.8595 32.1985C22.9106 32.4419 23.0206 32.669 23.1799 32.86C23.4952 33.1878 23.6713 33.6251 23.6713 34.08C23.6713 34.5349 23.4952 34.9721 23.1799 35.3C23.0262 35.4975 22.9236 35.7299 22.8813 35.9766C22.8391 36.2233 22.8583 36.4766 22.9375 36.7141C23.0166 36.9515 23.1532 37.1658 23.335 37.3378C23.5169 37.5097 23.7384 37.6342 23.9799 37.7C25.1399 38.04 25.4599 38.22 25.4599 39.84C25.4743 40.0719 25.5424 40.2972 25.6588 40.4983C25.7753 40.6994 25.9368 40.8707 26.1307 40.9987C26.3246 41.1267 26.5457 41.2079 26.7763 41.2359C27.007 41.2638 27.241 41.2379 27.4599 41.16C27.6602 41.0369 27.8836 40.9562 28.1162 40.9229C28.3489 40.8896 28.586 40.9043 28.8128 40.9661C29.0395 41.028 29.2512 41.1357 29.4348 41.2825C29.6183 41.4294 29.7698 41.6123 29.8799 41.82C30.0044 42.045 30.187 42.2326 30.4085 42.3633C30.6301 42.4939 30.8827 42.5628 31.1399 42.5628C31.3971 42.5628 31.6496 42.4939 31.8712 42.3633C32.0928 42.2326 32.2754 42.045 32.3999 41.82C32.5857 41.4705 32.8852 41.1949 33.2488 41.0385C33.6124 40.8822 34.0184 40.8545 34.3999 40.96" stroke="white" stroke-width="0.75" strokeLinecap="round" stroke-linejoin="round"/>
<path id="Vector_4" d="M31.1603 38.3999C33.5793 38.3999 35.5403 36.4389 35.5403 34.0199C35.5403 31.6009 33.5793 29.6399 31.1603 29.6399C28.7413 29.6399 26.7803 31.6009 26.7803 34.0199C26.7803 36.4389 28.7413 38.3999 31.1603 38.3999Z" stroke="white" stroke-width="0.75" strokeLinecap="round" stroke-linejoin="round"/>
<path id="Vector_5" d="M32.88 34.06C32.6516 34.0313 32.4197 34.0548 32.2018 34.1287C31.9838 34.2027 31.7855 34.3252 31.6218 34.487C31.4581 34.6488 31.3333 34.8456 31.2567 35.0627C31.1802 35.2797 31.1539 35.5113 31.18 35.74C31.2085 35.5064 31.1839 35.2694 31.1079 35.0466C31.0318 34.8239 30.9064 34.6212 30.741 34.4539C30.5755 34.2865 30.3743 34.1587 30.1525 34.0801C29.9306 34.0015 29.6939 33.9741 29.46 34C29.694 34.0308 29.932 34.0066 30.1551 33.9294C30.3782 33.8521 30.5802 33.724 30.7451 33.5552C30.9101 33.3863 31.0335 33.1814 31.1055 32.9566C31.1775 32.7318 31.1961 32.4933 31.16 32.26C31.1212 32.4982 31.1383 32.7421 31.2097 32.9725C31.2812 33.203 31.4052 33.4137 31.5719 33.5882C31.7386 33.7626 31.9435 33.8961 32.1704 33.9779C32.3974 34.0598 32.6403 34.0879 32.88 34.06Z" stroke="white" stroke-width="0.75" stroke-linejoin="round"/>
<path id="Vector_6" d="M50.2597 22.26H45.7197V45.5H50.2597V22.26Z" stroke="white" stroke-width="0.75" stroke-linejoin="round"/>
<path id="Vector_7" d="M45.7197 45.5L48.0797 50.14L50.2597 45.5" stroke="white" stroke-width="0.75" stroke-linejoin="round"/>
</g>
</g>
</svg>
