<svg width="70" height="70" viewBox="0 0 70 70" fill="none" xmlns="http://www.w3.org/2000/svg">
<circle cx="35" cy="35" r="34.5" transform="matrix(-1 0 0 1 70 0)" stroke="#626262"/>
<path d="M36.9399 26.7201C36.9399 26.3801 36.9399 24.3801 36.9399 24.0401C36.9643 23.5937 37.1539 23.1724 37.4719 22.8582C37.7898 22.544 38.2133 22.3593 38.6599 22.3401H48.4599C48.8886 22.3451 49.3014 22.503 49.624 22.7853C49.9467 23.0676 50.158 23.4559 50.2199 23.8801C50.2199 24.3001 50.2199 24.7401 50.2199 25.1601V37.1601C50.2199 40.2001 50.2199 43.1601 50.2199 46.2801C50.2147 46.7665 50.0192 47.2315 49.6752 47.5754C49.3313 47.9194 48.8663 48.1149 48.3799 48.1201H38.7199C38.2436 48.1154 37.7873 47.9282 37.4449 47.597C37.1026 47.2658 36.9003 46.816 36.8799 46.3401C36.8799 44.2401 36.8799 42.1201 36.8799 40.0201V29.1001" stroke="white" stroke-width="0.75" stroke-linejoin="round"/>
<path d="M45.0401 24.04H42.0801" stroke="white" stroke-width="0.75" stroke-linejoin="round"/>
<path d="M33.6398 42.8001C33.6398 45.8401 33.6398 43.4201 33.6398 46.4601C33.6346 46.9465 33.4391 47.4115 33.0951 47.7554C32.7512 48.0994 32.2862 48.2949 31.7998 48.3001H22.0998C21.6134 48.2949 21.1484 48.0994 20.8045 47.7554C20.4605 47.4115 20.265 46.9465 20.2598 46.4601C20.2598 44.3401 20.2598 42.2401 20.2598 40.1201V25.2401C20.2598 24.9001 20.2598 24.5601 20.2598 24.2001C20.2518 23.9604 20.2918 23.7215 20.3774 23.4975C20.463 23.2734 20.5925 23.0687 20.7583 22.8955C20.9242 22.7222 21.1229 22.5838 21.343 22.4884C21.5631 22.3931 21.8 22.3426 22.0398 22.3401H31.8598C32.2885 22.3451 32.7013 22.503 33.024 22.7853C33.3466 23.0676 33.5579 23.4559 33.6198 23.8801C33.6198 24.3001 33.6198 24.7401 33.6198 25.1601V39.5001" stroke="white" stroke-width="0.75" stroke-linejoin="round"/>
<path d="M28.4405 24.22H25.4805" stroke="white" stroke-width="0.75" stroke-linejoin="round"/>
<path d="M27.0196 43.88C28.3561 43.88 29.4396 42.7966 29.4396 41.46C29.4396 40.1235 28.3561 39.04 27.0196 39.04C25.6831 39.04 24.5996 40.1235 24.5996 41.46C24.5996 42.7966 25.6831 43.88 27.0196 43.88Z" stroke="white" stroke-width="0.75" strokeLinecap="round" stroke-linejoin="round"/>
<path d="M29.6201 41.4399C31.1934 41.5698 32.7762 41.3583 34.2601 40.8199C36.5201 39.1199 35.1601 35.2799 35.3401 31.7199C35.3401 30.6399 35.3401 29.5999 36.0601 28.8599C37.1801 27.7399 37.6601 27.9599 40.1601 27.9599L39.0801 26.8799" stroke="white" stroke-width="0.75" strokeLinecap="round" stroke-linejoin="round"/>
<path d="M40.0995 28.02L39.0195 29.08" stroke="white" stroke-width="0.75" strokeLinecap="round" stroke-linejoin="round"/>
</svg>
