<svg width="70" height="70" viewBox="0 0 70 70" fill="none" xmlns="http://www.w3.org/2000/svg">
<circle cx="35" cy="35" r="34.5" transform="matrix(-1 0 0 1 70 0)" stroke="#626262"/>
<path d="M36.6 49.9999C36.6 46.5999 36.6 46.5999 40 46.5999C40.8 46.5999 41.6 46.5999 42.4 46.5999C43.6 46.5999 44 45.9999 44 44.9999C44 43.3999 44 41.7999 44 40.3999C44.8 39.9999 45.4 40.1999 46 40.1999C46.6 40.1999 47.2 40.1999 47.8 39.9999C47.8 36.9999 47.2 33.9999 46.8 30.9999C46.2 24.5999 40.6 20.5999 36 20.1999C32.2 19.9999 29 20.9999 26 23.3999C23.6 25.7999 22.2 28.5999 22 31.9999" stroke="white" stroke-width="0.75" strokeMiterlimit="10"/>
<path d="M42.5998 33.3999C42.1998 29.3999 38.9998 26.1999 34.9998 25.9999C30.3998 25.7999 26.9998 28.9999 26.5998 32.7999C26.1998 34.3999 25.9998 36.1999 25.7998 37.9999C25.7998 38.7999 25.9998 38.7999 26.5998 38.9999C27.1998 38.9999 27.7998 38.7999 28.1998 39.1999C28.3998 39.9999 28.3998 40.7999 28.3998 41.5999C28.3998 42.7999 28.9998 43.1999 29.9998 43.1999C30.9998 43.1999 31.9998 43.1999 33.1998 43.1999C33.1998 45.5999 33.1998 47.7999 33.1998 50.1999" stroke="white" stroke-width="0.75" strokeMiterlimit="10"/>
<path d="M34.4002 38.4C36.7198 38.4 38.6002 36.5196 38.6002 34.2C38.6002 31.8804 36.7198 30 34.4002 30C32.0806 30 30.2002 31.8804 30.2002 34.2C30.2002 36.5196 32.0806 38.4 34.4002 38.4Z" stroke="white" stroke-width="0.75" strokeMiterlimit="10"/>
<path d="M37 37.6001L39.4 40.0001" stroke="white" stroke-width="0.75" strokeMiterlimit="10"/>
</svg>
