<svg width="70" height="70" viewBox="0 0 70 70" fill="none" xmlns="http://www.w3.org/2000/svg">
<circle cx="35" cy="35" r="34.5" transform="matrix(-1 0 0 1 70 0)" stroke="#626262"/>
<path d="M31.2002 36.6C31.4002 36.6 31.6002 36.4 31.8002 36.2C32.6002 35.2 33.2002 34 33.4002 32.6C33.8002 29.4 31.8002 26.4 28.6002 25.6C26.0002 24.8 23.6002 25.6 21.8002 27.6C20.6002 28.6 20.2002 30 20.0002 31.6C19.8002 33.4 20.4002 34.8 21.4002 36.2C21.6002 36.4 21.8002 36.6 22.0002 36.6C22.4002 37.4 23.4002 37.8 24.2002 38.2C25.2002 38.6 26.4002 38.8 27.6002 38.6C28.8002 38.4 29.8002 38 30.8002 37.2C31.0002 37 31.2002 37 31.2002 36.6Z" stroke="white" stroke-width="0.75" strokeMiterlimit="10"/>
<path d="M42.3998 30.2C42.3998 32 42.3998 34 42.3998 36V37.4C42.3998 40.8 42.3998 44.3999 42.3998 47.7999C42.3998 48.9999 41.3998 50 40.1998 50C36.3998 50 32.7998 50 28.9998 50C27.7998 50 26.7998 48.9999 26.7998 47.7999C26.7998 45.3999 26.7998 43 26.7998 40.6" stroke="white" stroke-width="0.75" strokeMiterlimit="10"/>
<path d="M42.4002 23.4C42.4002 23 42.4002 22.4 42.4002 22C42.4002 21.2 41.6002 20.2 40.4002 20.2C36.6002 20.2 32.8002 20.2 29.2002 20.2C28.0002 20.2 27.2002 21.2 27.2002 22.2C27.2002 22.6 27.2002 23 27.2002 23.4" stroke="white" stroke-width="0.75" strokeMiterlimit="10"/>
<path d="M31.2 36.5999C30.8 36.1999 30.6 35.5999 30.2 35.1999C29.6 34.7999 29 34.5999 28.4 34.5999C27.4 34.5999 26.2 34.5999 25.2 34.5999C24 34.5999 23.2 34.9999 22.6 35.9999C22.4 36.1999 22.2 36.3999 22 36.5999" stroke="white" stroke-width="0.75" strokeMiterlimit="10"/>
<path d="M39.3998 41.8C36.1998 41.8 32.9998 41.8 29.7998 41.8" stroke="white" stroke-width="0.75" strokeMiterlimit="10"/>
<path d="M37.3998 45.8C34.7998 45.8 32.3998 45.8 29.7998 45.8" stroke="white" stroke-width="0.75" strokeMiterlimit="10"/>
<path d="M42.4004 30.3999C42.8004 30.3999 43.2004 30.3999 43.6004 30.3999C44.2004 30.3999 44.2004 30.3999 44.4004 30.9999C44.4004 30.9999 44.4004 30.9999 44.4004 31.1999C44.4004 31.7999 44.4004 31.9999 45.4004 32.1999C45.8004 32.3999 45.8004 32.3999 46.0004 32.3999C46.2004 32.5999 46.4004 32.3999 46.6004 32.3999C46.6004 32.1999 46.8004 31.9999 47.0004 31.9999C47.2004 31.7999 47.4004 31.7999 47.6004 31.9999C47.8004 32.1999 48.0004 32.3999 48.2004 32.5999C48.4004 32.7999 48.4004 32.9999 48.2004 33.1999C48.4004 33.3999 48.2004 33.7999 48.0004 33.9999C47.8004 34.1999 47.8004 34.3999 48.0004 34.5999C48.2004 34.7999 48.4004 35.1999 48.4004 35.5999C48.4004 35.7999 48.6004 35.9999 48.8004 35.9999C49.0004 35.9999 49.4004 36.1999 49.6004 36.1999C50.0004 36.1999 50.0004 36.3999 50.0004 36.5999C50.0004 36.9999 50.0004 37.1999 50.0004 37.5999C50.0004 37.7999 50.0004 37.9999 49.6004 37.9999C49.4004 37.9999 49.0004 38.1999 48.8004 38.1999C48.6004 38.1999 48.4004 38.3999 48.4004 38.5999C48.2004 38.9999 48.2004 39.1999 48.0004 39.5999C47.8004 39.7999 48.0004 39.9999 48.0004 40.1999C48.2004 40.5999 48.4004 40.7999 48.6004 41.1999C48.4004 41.5999 48.0004 41.7999 47.6004 42.1999C47.4004 42.3999 47.2004 42.3999 47.0004 42.1999C46.8004 41.9999 46.6004 41.9999 46.4004 41.7999C46.2004 41.5999 46.0004 41.5999 45.8004 41.7999C45.6004 41.9999 45.2004 41.9999 44.8004 42.1999C44.6004 42.1999 44.4004 42.3999 44.4004 42.5999C44.4004 42.7999 44.2004 43.1999 44.2004 43.3999C44.2004 43.5999 44.0004 43.7999 43.8004 43.7999C43.4004 43.7999 42.8004 43.7999 42.4004 43.7999" stroke="white" stroke-width="0.75" strokeMiterlimit="10"/>
<path d="M44.4004 39.4C45.4004 39 46.2004 37.6 45.8004 36.4C45.4004 35.2 44.4004 34.4 43.2004 34.6C43.0004 34.6 42.8004 34.6 42.4004 34.6" stroke="white" stroke-width="0.75" strokeMiterlimit="10"/>
<path d="M34.1998 43.8C32.7998 43.8 31.1998 43.8 29.7998 43.8" stroke="white" stroke-width="0.75" strokeMiterlimit="10"/>
<path d="M36.4 22.2C35.2 22.2 34.2 22.2 33 22.2" stroke="white" stroke-width="0.75" strokeMiterlimit="10"/>
<path d="M26.3998 28.3999C25.5998 28.5999 24.9998 28.9999 24.7998 29.7999C24.3998 30.7999 24.7998 31.7999 25.7998 32.3999C26.7998 32.9999 27.7998 32.5999 28.3998 31.7999C28.7998 31.1999 28.9998 30.3999 28.5998 29.5999C28.1998 28.7999 27.5998 28.3999 26.7998 28.3999C26.5998 28.3999 26.5998 28.3999 26.3998 28.3999Z" stroke="white" stroke-width="0.75" strokeMiterlimit="10"/>
<path d="M37.4002 25.4C36.6002 25.6 36.2002 26.2 36.2002 26.8C36.2002 27.4 36.8002 28.4 37.8002 28.4C39.8002 28.4 42.0002 28.4 44.0002 28.4C45.0002 28.4 45.6002 27.6 45.6002 26.8C45.6002 26 45.0002 25.2 44.0002 25.2C41.6002 25.4 39.6002 25.4 37.4002 25.4Z" stroke="white" stroke-width="0.75" strokeMiterlimit="10" strokeLinecap="round"/>
</svg>
