<svg width="70" height="70" viewBox="0 0 70 70" fill="none" xmlns="http://www.w3.org/2000/svg">
<circle cx="35" cy="35" r="34.5" transform="matrix(-1 0 0 1 70 0)" stroke="#626262"/>
<path d="M25.6004 31H21.4004V35.2H25.6004V31Z" stroke="white" stroke-width="0.75" strokeMiterlimit="10" strokeLinecap="round" stroke-linejoin="round"/>
<path d="M36.6004 20.3999H32.4004V24.5999H36.6004V20.3999Z" stroke="white" stroke-width="0.75" strokeMiterlimit="10" strokeLinecap="round" stroke-linejoin="round"/>
<path d="M47.7996 31H43.5996V35.2H47.7996V31Z" stroke="white" stroke-width="0.75" strokeMiterlimit="10" strokeLinecap="round" stroke-linejoin="round"/>
<path d="M38.9998 45.7998H29.7998V49.9998H38.9998V45.7998Z" stroke="white" stroke-width="0.75" strokeMiterlimit="10" strokeLinecap="round" stroke-linejoin="round"/>
<path d="M31.2002 45.7998L28.2002 40.1998L34.4002 29.7998L40.8002 40.1998L38.0002 45.7998" stroke="white" stroke-width="0.75" strokeMiterlimit="10" strokeLinecap="round" stroke-linejoin="round"/>
<path d="M34.4004 29.7998V38.7998" stroke="white" stroke-width="0.75" strokeMiterlimit="10" strokeLinecap="round" stroke-linejoin="round"/>
<path d="M21.6 23.9998C20.6 23.9998 20 23.3998 20 22.3998C20 21.5998 20.6 20.7998 21.6 20.7998C22.4 20.7998 23.2 21.3998 23.2 22.3998C23 23.3998 22.4 23.9998 21.6 23.9998Z" stroke="white" stroke-width="0.75" strokeMiterlimit="10" strokeLinecap="round" stroke-linejoin="round"/>
<path d="M48.3998 23.9998C47.5998 23.9998 46.7998 23.3998 46.7998 22.3998C46.7998 21.5998 47.3998 20.7998 48.3998 20.7998C49.1998 20.7998 49.9998 21.3998 49.9998 22.3998C49.9998 23.3998 49.1998 23.9998 48.3998 23.9998Z" stroke="white" stroke-width="0.75" strokeMiterlimit="10" strokeLinecap="round" stroke-linejoin="round"/>
<path d="M34.3998 41.7999C33.5998 41.7999 32.7998 41.1999 32.7998 40.1999C32.7998 39.3999 33.3998 38.5999 34.3998 38.5999C35.3998 38.7999 35.9998 39.3999 35.9998 40.1999C35.9998 41.1999 35.3998 41.7999 34.3998 41.7999Z" stroke="white" stroke-width="0.75" strokeMiterlimit="10" strokeLinecap="round" stroke-linejoin="round"/>
<path d="M23 22.3999H32.4" stroke="white" stroke-width="0.75" strokeMiterlimit="10" strokeLinecap="round" stroke-linejoin="round"/>
<path d="M36.5996 22.3999H46.7996" stroke="white" stroke-width="0.75" strokeMiterlimit="10" strokeLinecap="round" stroke-linejoin="round"/>
<path d="M36.7998 22.3999C41.3998 22.9999 44.9998 26.3999 46.1998 30.7999" stroke="white" stroke-width="0.75" strokeMiterlimit="10" strokeLinecap="round" stroke-linejoin="round"/>
<path d="M23.7998 30.7999C24.7998 26.7999 28.1998 23.5999 32.1998 22.5999" stroke="white" stroke-width="0.75" strokeMiterlimit="10" strokeLinecap="round" stroke-linejoin="round"/>
</svg>
