<svg width="70" height="70" viewBox="0 0 70 70" fill="none" xmlns="http://www.w3.org/2000/svg">
<circle cx="35" cy="35" r="34.5" transform="matrix(-1 0 0 1 70 0)" stroke="#626262"/>
<path d="M43.0002 45C41.2002 45 39.6002 45 37.8002 45C36.8002 45 36.2002 44.4 36.2002 43.4C36.2002 41.6 36.2002 39.5999 36.2002 37.7999C36.2002 36.7999 36.6002 36.2 37.8002 36.2C41.4002 36.2 45.0002 36.2 48.6002 36.2C49.6002 36.2 50.2002 36.7999 50.2002 37.7999C50.2002 39.5999 50.2002 41.4 50.2002 43.2C50.2002 44.6 49.8002 45 48.4002 45C46.4002 45 44.8002 45 43.0002 45Z" stroke="white" stroke-width="0.75" strokeMiterlimit="10"/>
<path d="M43.0002 28.8C41.2002 28.8 39.6002 28.8 37.8002 28.8C36.8002 28.8 36.2002 28.2 36.2002 27.2C36.2002 25.4 36.2002 23.4 36.2002 21.6C36.2002 20.4 36.6002 20 37.6002 20C41.2002 20 44.8002 20 48.4002 20C49.4002 20 50.0002 20.6 50.0002 21.6C50.0002 23.4 50.0002 25.2 50.0002 27C50.0002 28.4 49.6002 28.8 48.2002 28.8C46.4002 28.8 44.8002 28.8 43.0002 28.8Z" stroke="white" stroke-width="0.75" strokeMiterlimit="10"/>
<path d="M26.8 28.8C25 28.8 23.4 28.8 21.6 28.8C20.6 28.8 20 28.2 20 27.2C20 25.4 20 23.4 20 21.6C20 20.4 20.4 20 21.6 20C25.2 20 28.8 20 32.4 20C33.4 20 34 20.6 34 21.6C34 23.4 34 25.2 34 27C34 28.4 33.6 28.8 32.2 28.8C30.4 28.8 28.6 28.8 26.8 28.8Z" stroke="white" stroke-width="0.75" strokeMiterlimit="10"/>
<path d="M26.7998 44.9999C24.9998 44.9999 23.3998 44.9999 21.5998 44.9999C20.3998 44.9999 19.7998 44.5999 19.9998 43.3999C19.9998 41.5999 19.9998 39.7999 19.9998 37.9999C19.9998 36.9999 20.3998 36.3999 21.5998 36.3999C25.1998 36.3999 28.5998 36.3999 32.1998 36.3999C33.3998 36.3999 33.7998 36.9999 33.7998 37.9999C33.7998 39.7999 33.7998 41.5999 33.7998 43.3999C33.7998 44.5999 33.1998 44.9999 31.9998 44.9999C30.1998 44.9999 28.5998 44.9999 26.7998 44.9999Z" stroke="white" stroke-width="0.75" strokeMiterlimit="10"/>
<path d="M28 32.9999H20.6C20.2 32.9999 20 32.5999 20 32.3999V30.9999C20 30.5999 20.2 30.3999 20.6 30.3999H28C28.4 30.3999 28.6 30.5999 28.6 30.9999V32.3999C28.6 32.5999 28.4 32.9999 28 32.9999Z" stroke="white" stroke-width="0.75" strokeMiterlimit="10" strokeLinecap="round" stroke-linejoin="round"/>
<path d="M49.2002 32.9999H37.0002C36.6002 32.9999 36.2002 32.5999 36.2002 32.1999V31.1999C36.2002 30.7999 36.6002 30.3999 37.0002 30.3999H49.2002C49.6002 30.3999 50.0002 30.7999 50.0002 31.1999V31.9999C50.0002 32.5999 49.6002 32.9999 49.2002 32.9999Z" stroke="white" stroke-width="0.75" strokeMiterlimit="10" strokeLinecap="round" stroke-linejoin="round"/>
<path d="M42 49.9999H36.8C36.4 49.9999 36 49.5999 36 49.1999V48.1999C36 47.7999 36.4 47.3999 36.8 47.3999H42C42.4 47.3999 42.8 47.7999 42.8 48.1999V49.1999C42.6 49.5999 42.4 49.9999 42 49.9999Z" stroke="white" stroke-width="0.75" strokeMiterlimit="10" strokeLinecap="round" stroke-linejoin="round"/>
<path d="M32.8 49.9999H21C20.4 49.9999 20 49.5999 20 48.9999V48.3999C20 47.7999 20.4 47.3999 21 47.3999H32.8C33.4 47.3999 33.8 47.7999 33.8 48.3999V48.9999C33.6 49.5999 33.2 49.9999 32.8 49.9999Z" stroke="white" stroke-width="0.75" strokeMiterlimit="10" strokeLinecap="round" stroke-linejoin="round"/>
</svg>
